<svg width="29" height="33" viewBox="0 0 29 33" fill="none" xmlns="http://www.w3.org/2000/svg">
<path d="M15.4451 0.0018552C15.6395 0.00221379 15.8339 0.00257238 16.0342 0.00294184C16.6466 0.00434443 17.259 0.00752234 17.8713 0.0107649C18.2901 0.012038 18.7089 0.013194 19.1277 0.0142298C20.1467 0.0170028 21.1657 0.0213664 22.1847 0.0266043C22.1847 0.695663 22.1847 1.36472 22.1847 2.05405C21.9081 2.05775 21.6316 2.06145 21.3467 2.06525C20.3168 2.07999 19.287 2.09956 18.2572 2.12057C17.8122 2.12897 17.3672 2.13608 16.9222 2.14185C16.281 2.15039 15.64 2.16365 14.9989 2.1778C14.7024 2.18023 14.7024 2.18023 14.3998 2.18271C13.2149 2.21439 12.395 2.38838 11.3637 3.06778C9.60694 5.03528 8.42587 7.92491 7.51631 10.4173C7.82411 10.4297 8.13192 10.4421 8.44905 10.4549C13.19 10.6522 17.9276 10.9158 22.6656 11.1776C22.7729 11.4144 22.8801 11.6513 22.9906 11.8953C23.8682 13.6728 25.2598 14.5536 26.994 15.2325C26.994 15.9852 26.994 16.7379 26.994 17.5134C22.5502 17.597 18.1064 17.6806 13.5279 17.7668C13.7653 19.6551 13.7653 19.6551 14.9707 20.808C15.7018 21.272 16.2148 21.373 17.064 21.3482C17.3986 21.3408 17.3986 21.3408 17.74 21.3333C18.0989 21.3222 18.0989 21.3222 18.465 21.3109C18.9725 21.302 19.4801 21.2934 19.9876 21.2851C20.7872 21.2694 21.5866 21.2514 22.386 21.228C23.1581 21.2065 23.9298 21.1946 24.702 21.1842C24.9413 21.1747 25.1805 21.1653 25.427 21.1556C26.0616 21.1506 26.6169 21.1602 27.2344 21.3148C27.883 22.0417 27.883 22.0417 28.1963 22.8354C28.046 23.5007 28.046 23.5007 27.7154 24.1026C27.0527 25.3455 27.0527 25.3455 26.994 27.904C21.2805 27.904 15.5671 27.904 9.68049 27.904C9.68049 29.3258 9.68049 30.7475 9.68049 32.2124C9.0024 32.927 8.49523 32.7926 7.56844 32.8009C7.35781 32.8001 7.14719 32.7993 6.93018 32.7984C6.72048 32.8025 6.51078 32.8066 6.29473 32.8108C5.99227 32.8111 5.99227 32.8111 5.6837 32.8113C5.40685 32.8124 5.40685 32.8124 5.1244 32.8136C4.49256 32.6928 4.28245 32.5049 3.90933 31.9589C3.82744 31.4771 3.82744 31.4771 3.83889 30.9422C3.84121 30.7503 3.84353 30.5584 3.84593 30.3606C3.85197 30.1615 3.85802 29.9624 3.86425 29.7573C3.86913 29.4542 3.86913 29.4542 3.87411 29.145C3.8826 28.6468 3.89554 28.1487 3.90933 27.6506C3.69359 27.5565 3.69359 27.5565 3.47349 27.4605C2.82125 27.0677 2.59397 26.8282 2.22608 26.13C2.12072 25.3542 2.13078 24.5852 2.13872 23.8026C2.1386 23.5764 2.13848 23.3502 2.13836 23.1172C2.13892 22.6394 2.14126 22.1616 2.14524 21.6838C2.15091 20.954 2.15018 20.2245 2.14859 19.4948C2.14993 19.03 2.15164 18.5652 2.15375 18.1004C2.15342 17.7741 2.15342 17.7741 2.15309 17.4411C2.16543 16.3392 2.21991 15.4755 2.70701 14.4722C2.57651 14.4108 2.44601 14.3494 2.31156 14.2861C0.451015 13.3675 0.451015 13.3675 0.0618938 12.4447C-0.0338306 11.7212 -0.006291 11.1599 0.0618938 10.4173C0.820116 9.88455 0.990337 9.84872 1.85317 9.86093C2.15888 9.86338 2.15888 9.86338 2.47077 9.86588C2.68264 9.87012 2.89451 9.87437 3.11279 9.87875C3.43478 9.88217 3.43478 9.88217 3.76327 9.88567C4.29295 9.89164 4.82251 9.89998 5.35212 9.91042C5.37413 9.70232 5.39614 9.49422 5.41882 9.27982C5.62895 8.20363 6.00202 7.30249 6.44925 6.31487C6.53478 6.12582 6.62031 5.93677 6.70844 5.74199C7.73716 3.53091 8.84589 1.20642 11.1233 0.280036C12.5544 0.016555 13.9963 -0.00847503 15.4451 0.0018552Z" fill="#FBB228"/>
<path d="M4.87123 16.753C6.6283 16.3897 8.7008 16.8319 10.1887 17.8667C10.9426 18.5165 11.477 19.0816 11.8447 20.0476C11.7182 21.1947 11.7182 21.1947 11.3638 21.5682C9.98294 21.6685 8.69431 21.5165 7.33599 21.2514C7.0347 21.1926 6.7334 21.1338 6.42298 21.0732C5.52903 20.7876 5.03356 20.5053 4.3903 19.7942C4.25597 19.223 4.25597 19.223 4.28509 18.6379C4.29036 18.4442 4.29563 18.2504 4.30106 18.0508C4.3903 17.5133 4.3903 17.5133 4.87123 16.753Z" fill="#F7F1F1"/>
<path d="M9.44 1.29382C9.5987 1.29382 9.75741 1.29382 9.92093 1.29382C9.63897 2.13959 9.39462 2.75723 8.7186 3.32127C8.55989 3.32127 8.40119 3.32127 8.23767 3.32127C8.56697 2.57376 8.9298 1.92114 9.44 1.29382Z" fill="#FBB228" fill-opacity="0.95"/>
</svg>
